<svg id="Layer_1" data-name="Layer 1" xmlns="http://www.w3.org/2000/svg" viewBox="0 0 585.46 46.91"><defs><style>.cls-1{fill:#231916;}</style></defs><path d="M866.22,577.24l-6.16-6a1.59,1.59,0,0,0-1.36-.64H820.33V617H858.7a1.59,1.59,0,0,0,1.36-.64l6.16-6a2.64,2.64,0,0,0,.64-1.44V578.68A2.7,2.7,0,0,0,866.22,577.24Zm-9.59,29.51H830.56V580.84h26.07v7.92h-23v10.07h23Z" transform="translate(-820.33 -570.61)"/><path d="M913.15,617.06V598.91H887v18.15H876.85v-38.3a2,2,0,0,1,.64-1.44l6-6.07a2,2,0,0,1,1.44-.64h36.3a1.83,1.83,0,0,1,2.08,2.07v44.38Zm0-36.22H887v7.92h26.14Z" transform="translate(-820.33 -570.61)"/><path d="M970.64,617.06V580.84H944.5v36.22H934.34V572.68a1.83,1.83,0,0,1,2.08-2.07h36.3a2,2,0,0,1,1.44.64l6,6.07a2,2,0,0,1,.64,1.44v38.3Z" transform="translate(-820.33 -570.61)"/><path d="M1000,617.06a2.12,2.12,0,0,1-1.43-.56l-6-6.08a2.7,2.7,0,0,1-.64-1.52V578.76a2,2,0,0,1,.64-1.44l6-6.07a2,2,0,0,1,1.43-.64h38.38v10.23h-36.3v26h36.3v10.23Z" transform="translate(-820.33 -570.61)"/><path d="M1094.73,608.9a2.7,2.7,0,0,1-.64,1.52l-6,6.08a2.66,2.66,0,0,1-1.44.56h-30.31a2.16,2.16,0,0,1-1.44-.56l-6-6.08a2.7,2.7,0,0,1-.64-1.52V578.76a2,2,0,0,1,.64-1.44l6-6.07a2,2,0,0,1,1.44-.64h30.31a2,2,0,0,1,1.44.64l6,6.07a2,2,0,0,1,.64,1.44Zm-10.15-28.06h-26.15v26h26.15Z" transform="translate(-820.33 -570.61)"/><path d="M1349.37,599.2V589.11h-36.31v-7.88h36.3V571H1311a2,2,0,0,0-1.43.64l-6,6.08a2,2,0,0,0-.64,1.44v30.14a2.72,2.72,0,0,0,.64,1.52l6,6.08a2.12,2.12,0,0,0,1.43.56h38.38V607.21h-36.3v-8Z" transform="translate(-820.33 -570.61)"/><path d="M1405.77,599.67v-2.31a2.7,2.7,0,0,0-.64-1.52l-6-6.08a2.16,2.16,0,0,0-1.44-.56h-28.23v-8h36.2V571h-38.28a2,2,0,0,0-1.44.64l-6,6.08a2,2,0,0,0-.64,1.44v12a2.72,2.72,0,0,0,.64,1.52l6,6.07a2.07,2.07,0,0,0,1.43.56h28.24v8h-36.21v10.24h38.29a2.12,2.12,0,0,0,1.43-.56l6-6.08a2.72,2.72,0,0,0,.64-1.52v-9.69Z" transform="translate(-820.33 -570.61)"/><path class="cls-1" d="M1178,607.21h0v-7.55h-10.22v7.55h-26.33v-26h36.3V571h-38.38a2,2,0,0,0-1.44.64l-6,6.07a2,2,0,0,0-.63,1.44v30.14a2.74,2.74,0,0,0,.63,1.52l6,6.08a2.16,2.16,0,0,0,1.44.56H1178Z" transform="translate(-820.33 -570.61)"/><path d="M1224.15,617.43V599.28H1198v18.15h-10.16V579.14a2,2,0,0,1,.64-1.44l6-6.08a2,2,0,0,1,1.44-.64h36.3a1.84,1.84,0,0,1,2.08,2.08v44.37Zm0-36.22H1198v7.92h26.14Z" transform="translate(-820.33 -570.61)"/><path d="M1291.16,577.69l-6-6.07a2,2,0,0,0-1.44-.64h-36.3a1.84,1.84,0,0,0-2.08,2.08v44.37h10.16V581.21h8v36.22h10.15V581.21h8v36.22h10.16v-38.3A2,2,0,0,0,1291.16,577.69Z" transform="translate(-820.33 -570.61)"/></svg>