<svg  data-name="Layer 1" fill="none" xmlns="http://www.w3.org/2000/svg" viewBox="0 0 92.25 92.25"><polygon class="path" points="33.04 59.14 59.22 59.14 59.22 51.19 36.17 51.19 36.17 41.07 59.22 41.07 59.22 33.12 33.04 33.12 33.04 59.14"/><path class="path" d="M297.67,340.46a46.13,46.13,0,1,0,46.12,46.13A46.13,46.13,0,0,0,297.67,340.46ZM321,401.76a2.72,2.72,0,0,1-.65,1.45l-6.18,6a1.61,1.61,0,0,1-1.36.65H274.3V363.3h38.55a1.6,1.6,0,0,1,1.36.64l6.18,6a2.72,2.72,0,0,1,.65,1.45Z" transform="translate(-251.54 -340.46)"/></svg>